/* XPM */
static char *_66a8b6626cc4a24b69739bc892b52d3FhfYYauosIrzTCOC[] = {
/* columns rows colors chars-per-pixel */
"64 64 256 2 ",
"   c #0B0200",
".  c #030500",
"X  c #180901",
"o  c #071802",
"O  c #191704",
"+  c #181513",
"@  c #240B03",
"#  c #261708",
"$  c #34190C",
"%  c #291A14",
"&  c #371B16",
"*  c #230912",
"=  c #092703",
"-  c #1A2804",
";  c #083703",
":  c #173706",
">  c #182E17",
",  c #282709",
"<  c #34260C",
"1  c #292715",
"2  c #382617",
"3  c #363619",
"4  c #2A3810",
"5  c #1B3137",
"6  c #382925",
"7  c #373828",
"8  c #30302F",
"9  c #3B0D31",
"0  c #44230F",
"q  c #462818",
"w  c #48321B",
"e  c #52311D",
"r  c #47182D",
"t  c #492A24",
"y  c #4A3627",
"u  c #543726",
"i  c #4E3333",
"p  c #421C19",
"a  c #074701",
"s  c #164807",
"d  c #065701",
"f  c #185210",
"g  c #294517",
"h  c #275819",
"j  c #324D17",
"k  c #096700",
"l  c #156906",
"z  c #177809",
"x  c #1A6814",
"c  c #15770D",
"v  c #276716",
"b  c #247519",
"n  c #306B19",
"m  c #284A26",
"M  c #2C5825",
"N  c #3B5734",
"B  c #344E2F",
"V  c #366927",
"C  c #357627",
"Z  c #316F2F",
"A  c #185921",
"S  c #4B5036",
"D  c #477739",
"F  c #4D6D37",
"G  c #2C2F4B",
"H  c #343069",
"J  c #252360",
"K  c #51334E",
"L  c #63385B",
"P  c #531770",
"I  c #54326F",
"U  c #6C3175",
"Y  c #4F1D42",
"T  c #354B4B",
"R  c #366C4C",
"E  c #2C4763",
"W  c #4E514B",
"Q  c #675154",
"!  c #567856",
"~  c #4E704E",
"^  c #646857",
"/  c #6A7151",
"(  c #505170",
")  c #6D4E73",
"_  c #516E6D",
"`  c #74736E",
"'  c #857971",
"]  c #854F71",
"[  c #1A8C0E",
"{  c #259918",
"}  c #2B9015",
"|  c #17AB09",
" . c #1BBC03",
".. c #18B705",
"X. c #19AA11",
"o. c #24B909",
"O. c #33AB1A",
"+. c #29B717",
"@. c #34B51C",
"#. c #29A817",
"$. c #35862B",
"%. c #33932E",
"&. c #36AA26",
"*. c #36B824",
"=. c #30A82F",
"-. c #458939",
";. c #4B9D3D",
":. c #479938",
">. c #539E3B",
",. c #549C35",
"<. c #49922D",
"1. c #689D39",
"2. c #4CA33D",
"3. c #47A43B",
"4. c #54A33C",
"5. c #5AA43C",
"6. c #5CAA3B",
"7. c #57A536",
"8. c #4DAB31",
"9. c #65A43B",
"0. c #64AA3C",
"q. c #67A739",
"w. c #6BB63C",
"e. c #74B73E",
"r. c #72A734",
"t. c #418A1E",
"y. c #1AC403",
"u. c #1ED300",
"i. c #22C406",
"p. c #2ACE15",
"a. c #3AD825",
"s. c #4BF233",
"d. c #57D734",
"f. c #3B904B",
"g. c #3BA44A",
"h. c #588A48",
"j. c #4C9E43",
"k. c #4C9846",
"l. c #529D44",
"z. c #549D4A",
"x. c #59984A",
"c. c #5A8957",
"v. c #5B9955",
"b. c #478A4D",
"n. c #678955",
"m. c #659958",
"M. c #6B934E",
"N. c #4DA344",
"B. c #4CAA44",
"V. c #4DA44A",
"C. c #4EA949",
"Z. c #46A645",
"A. c #52A344",
"S. c #5AA543",
"D. c #53AA45",
"F. c #5BAB44",
"G. c #53A44B",
"H. c #59A44C",
"J. c #54AA4A",
"K. c #5BAB4B",
"L. c #5BB24B",
"P. c #5BA353",
"I. c #58A952",
"U. c #54AF50",
"Y. c #63AB42",
"T. c #6BAD45",
"R. c #69A947",
"E. c #6CB145",
"W. c #67B248",
"Q. c #72B643",
"!. c #76B847",
"~. c #65A756",
"^. c #63B453",
"/. c #69B856",
"(. c #75B857",
"). c #73AA4F",
"_. c #539066",
"`. c #6A8A67",
"'. c #699964",
"]. c #779669",
"[. c #768774",
"{. c #748F72",
"}. c #72A767",
"|. c #7DC54B",
" X c #7CC658",
".X c #78C964",
"XX c #86BD4B",
"oX c #878F7B",
"OX c #8ABF6B",
"+X c #87C84C",
"@X c #83C554",
"#X c #83CA54",
"$X c #8BCC52",
"%X c #88C85A",
"&X c #94CA58",
"*X c #8ED154",
"=X c #8FCB67",
"-X c #ADDA7B",
";X c #361589",
":X c #4C0D99",
">X c #671A90",
",X c #583590",
"<X c #6E368B",
"1X c #540EAC",
"2X c #6C12B4",
"3X c #722DB0",
"4X c #5829A8",
"5X c #5A4D8A",
"6X c #714D8D",
"7X c #746C89",
"8X c #6D4DAE",
"9X c #575796",
"0X c #740CC7",
"qX c #7B30CE",
"wX c #794BC7",
"eX c #893597",
"rX c #8C16B3",
"tX c #8A28A8",
"yX c #942BAB",
"uX c #8C32AE",
"iX c #841D93",
"pX c #8B5095",
"aX c #8B6D8F",
"sX c #8D4BAF",
"dX c #9968B1",
"fX c #8D14CC",
"gX c #AC17D2",
"hX c #912CD0",
"jX c #AD2AD5",
"kX c #9D30E8",
"lX c #AD35E5",
"zX c #8B19E0",
"xX c #914CCC",
"cX c #AD4AD3",
"vX c #AA49EA",
"bX c #A061D3",
"nX c #C352D6",
"mX c #C53ED8",
"MX c #8C8E8B",
"NX c #A8998D",
"BX c #90A589",
"VX c #B1B1A6",
"CX c #AA9BA6",
"ZX c #B8DE91",
"AX c #CCC7BB",
"SX c #D5FFA4",
"DX c #D5D5CB",
"FX c #E6DBD4",
"GX c #EBE4DA",
"HX c #EFEBDA",
"JX c #FAF9EC",
"KX c #FEFEF3",
"LX c #FCFEF9",
"PX c #F1EFE3",
"IX c #D8EAD4",
"UX c #BDA5BA",
/* pixels */
"SX-X=X%X%X$X+X+X#X#X$X$X$X+X$X*X+X+X+X+X+X&X&X%X=X%X@X%X=X=X.X X%X%X#X|.#X*X&X+X&X+X+X+X*X*X+X|.+X+X$X$X$X$X$X$X$X$X$X*X@X%XZXZX",
"ZX%X).!.Q.w.w.w.w.w.w.Q.Q.Q.Q.!.!.e.e.!.XXXXQ.w.<.} l k d d k k k k k l } 8.Q.|.!.!.!.!.Q.w.w.|.w.e.Q.Q.Q.Q.Q.Q.e.e.e.!.Q.!.=X=X",
"%XT.5.5.7.7.7.7.4.7.7.7.7.7.4.6.,.9.,.,.,.t.z k z [ { O.O.@.@.O.O.@.O.#.[ [ k d %.<.:.S.S.>.>.4.4.7.7.7.5.5.7.7.7.,.,.6.7.5.).R.",
" X6.,.4.4.2.2.4.A.;.;.4.4.4.N.A.A.(.^.4.<.} } [ #.@.a.p.+.o.o.o.o.o.+.+.+.@.O.#.[ z x C k.P.A.:.A.A.A.4.A.4.4.4.4.>.4.6.,.,.R.1.",
" X6.,.D.L.L.J.G.G.G.A.A.D.D.G.G.S./.3.} [ [ @.a.a.s.s.p.y. .i.i.y.y.......o.+.@.O.} l l $.S.P.G.G.V.G.A.V.C.C.A.D.K.W./.6.4.E.R.",
"#X6.,.D.L.U.J.G.G.G.C.D.J.J.G.z.H.K.%.} { +.d.s.s.s.s.a.p.y.y. ... .y.i.i.y...+.+.&.{ z l b :.H.G.V.V.C.C.N.C.C.A.K./. XW.6.E.9.",
"#X0.,.D.J.J.G.G.G.j.N.D.L.J.z.z.h.C l O.@.p.s.s.s.a.p.y. ...o.o.i.y.y.y. . .o.+.| +.*.{ l d b :.z.G.A.N.2.2.N.C.A.H.^./.F.5.E.9.",
"@X0.4.J.J.N.C.G.G.A.B.L.L.I.v.v.m.V k &.+. .s.s.a.p.y.y.y.i.o.o. . . .......| ......+.#.z d x x.v.v.x.S.4.2.Z.C.G.G.l.S.>.4.E.9.",
"#XY.>.N.N.B.C.J.J.G.3.2.D.x.'.{.m A C =.+.y.u.u.u.y.y.y. .y.i. ... .....| | | | | | | X.[ x v A c.`.m.~.^.L.2.C.N.G.S.S.>.4.T.9.",
"@XY.4.A.B.Z.Z.C.N.N.3.2.H.m.[.MXT B Z %.#... . .y... . ... .o.......o.X.X.X.X.X.X.| X.#.{ b m 5 W _ `.'.~.D.2.J.N.G.A.A.>.4.E.9.",
"@XY.A.G.C.Z.N.N.G.I.J.G.~.`.aXdX) ( ~ b.%.#.+.+.+.+.*.*.*.+.+.X.+.#.=.=.=.=.=.=.=.=.=.g.b.R T G I ( ` `.m.G.N.J.V.G.V.A.;.4.T.9.",
"@XY.l.G.B.B.D.J.G.G.N.z.m.[.aXpXsX6X( _ ~ f.g.%.%.%.%.%.f.g.Z.Z.g.f.f.f.b.b.f.f.f.f.f._._.( I ,X<X6X6X` '.P.V.V.V.V.j.A.2.4.T.9.",
"@XY.>.l.A.J.K.^.z.z.j.G.}.oXpXsXcXuX3X6X( ( _ _ T T 5 5 G T E ( _ _ T G G E H J ( _ _ 9X9X,X:X3XqXuX6X7X{.v.z.Z.V.V.N.J.4.4.T.R.",
"@XY.>.l.A.A.K.^.H.H.C.G.}.MXpXsXvXhXhX3X<X,X5X5X5X5X,X<X8X8X8X8X,X,XH J ;X8XwX8X,X8X8X8X4X:X1X0X0XfXsXaX[.v.k.V.V.V.N.K.F.4.R.R.",
"#XY.>.l.A.N.D.F.;.C.3.3.v.[.aXsXvXhXhXqX3X4X3X3XwXxXxXxXxXhX2X2X3X3X>X:X:X2XqX0X0XqXxXwX2X1X0X0X0XfXuXpX[.m.z.C.N.C.A.^.F.5.R.9.",
" XY.>.l.A.2.A.A.;.D.3.B.P.{.MXbXhX0X2X2X1X:X:X:X:X:X:X1X2X0X0X0XhXhXhXfX0X0X0X1X0XqXvXqX2X0X0X0XfXrXtX6X[.m.G.G.N.A.A.^.W.6.R.9.",
"#X6.,.J.A.>.S.S.N.C.=.B.P.c.MXUXuX2X3X4X4X;X:X;X:X:X2XfXfXfXfXgXgXgXfXhXhXfX2X2X4X3XxXxX3X2XqXhXrXrXeXaX[.'.I.K.G.H.;.K.4.,.T.R.",
" X6.7.6.4.l.~.~.z.I.3.3.G.v.`.7X6XsX<XH ;XJ ;X:X:X:X2XfXfXfXgXgXgXgXfXjXhXhX3X,XI H H I ,X<X,XP 3XeXpX7X`.v.k.A.x.~.l.A.4.4.E.R.",
"@Xw.Y.L.S.z.v.h.c.}.v.k.z.v.v.! T _ _ G E H J P :X1XrXjXjXjXjXgXgXgXjXlXhX3X5X9X_ R R T 5 5 T ( ( I ) 7X{.].m.x.-.}.~.l.4.4.).R.",
"@XQ.W./.^.x.D s m ! m.m.x.z.v.b.M R _.f._._ I <X>X2XhXjXjXjXjXgXgXfXjXlXhX3X5X_ _.g.g.V.f.Z Z R T 5 T ` [.n.D h h ~.~.H.A.4.R.R.",
"+Xw.Y./.^.x.h . o 7 / ].}.~.I.k.Z a b g.$.~ I >X2XfXjXlXcXmXmXjXjXfXzXlXlX3X( _.%.[ X.{ { c c x A > T [.^ 3 4 o : M.~.H.A.4.R.1.",
"+Xq.,.A.I.x.M o O % 2 S / h.~.I.v.x c B.:.~ ) tXfXkXlXcXcXnXnXcXlXfXfXkXvXsX) ! Z.*.*.#.z k z $.f m ~ ` i @ , - g h.z.;.A.S.).1.",
"+X7.:.j.G.z.D j , @ X # , g D m.m.-.k %.k.~ <XtXzXkXvXxXdXdXdXdXxXhX0XzXkXxX7X~ =.#.#.{ [ b x x M ~ S i p @ < 4 F x.k.N.A.5.).1.",
"#X0.4.A.G.P.m.n., < $ $ X o S M.m.~.d l Z W >XhXkXvXbXsX7XMXMX7XxXhXzXzXhXxX7X~ Z.#.[ z x v v f ].NXi @ p 0 < 4 -.m.G.U.A.>.!.q.",
"|.0.A.G.V.z.x.M.M.F , X # < < , n.m.k.f _.G uXfXkXvXsXI _ {.{.MXdXxXvXkXhXxX( ! %.z l b a : m VX` $ @ & @ # j D x.H.G.G.N.5.E.q.",
"|.0.4.G.V.V.G.H.M.M.F j # X @ < - n.'.A T G eXhXcXsXI 8 ~ P.v.{.CXsXhXhXxXbX) `.V l f ; o ! oXW 2 $ $ @ 3 / M.x.l.G.N.C.N.4.E.q.",
"|.0.4.A.V.V.C.G.z.~.}./ S # @ # X 3 B 4 T ( eXeXsXI 8 N l.L.I.'.7X6XxXbXxXbX) W S = o - B ^ ^ O @ @ % 3 / }.~.S.;.C.N.N.;.4.E.q.",
"|.0.4.A.V.V.C.C.N.H.P.m.n.S < X 1 . . > > K ) pX7XW N D <.%.%.b.` 6XsX3X>XpXL 6 < o O 1 S 1 1 . X O S n.m.H.:.A.2.D.A.A.l.4.E.6.",
"+Xq.4.A.G.C.C.N.C.C.j.z.m.n.S 3 #   . > = B ^ ' [.c.h.>.%.} %.b.! ( ) I P pXL * X < % . + W ^ 1 . 1 ! }.l.;.D.D.D.L.J.J.A.S.E.9.",
"@X0.4.A.J.A.A.2.N.U.U.G.x.M.n.`.. O 1 S m > 3 3 : s s s a a a : g 8 K ) I ) K % % %   7 VXDX` S 6 3 ~ ~.;.D.K.;.K.L.H.K.A.S.E.9.",
"@XY.4.D.D.D.4.>.4.^./.J.l.x.m.].. 8 W W > o y . : g B j j g 4 , , < i L Y K t 2 # O W FXKXDX2 1 S m D x.H.J.j.;.G.H.D.D.l.5.E.9.",
"%XY.4.D.D.D.S.>.4.K.K.D.H.z.D N B B 8 o 1 oXHX# o 4 3 < < < 2 w w 0 t i r i & O O S PXLX. O , O - B h.x.A.2.j.I.j.G.A.A.>.5.E.9.",
"%X9.>.K.^.^.K.>.;.2.N.J.G.z.~ N B > = > o S FXKX1 X < u w 2 w w 2 q q i t 6 # + 8 LXFX1 . - M V = = m.x.K.3.B.3.N.G.z.G.S.S.T.9.",
"%X0.>.K.^.^.K.;.A.N.N.C.G.P.v.c.M : : F g . Q FXHX' O X t u 2 2 y t 2 2 $ X i MXLXFXQ X O : n C s ; m.x.J.2.2.B.N.G.z.G.A.5.E.9.",
"#X0.4.D.K.K.J.A.G.G.C.N.N.G.P.m.v.M s V S O   W KXKXAXS @ & t t & q i 2 X 2 AXLXGXQ   # , : n V h a ~.~.Y.F.B.J.A.G.z.G.A.5.E.9.",
"#XY.4.A.B.B.A.N.G.G.G.N.2.2.l.k.P.C C h g 7 % X 7 VXKXDXS @ & & y 2 X   ` FXKXNXt @ $ y , : V V V a h.).^./.4.D.A.G.N.A.N.4.E.9.",
"#XY.4.A.C.N.A.N.j.V.C.B.B.D.D.A.H.b C v : 3 q q # # oXKXJX' 2 # @ 2 @ i GXJXVX# @ q u w , - g M V a n x.~.(.A.A.A.A.N.N.2.4.E.9.",
"%X0.>.A.C.C.C.N.N.V.N.Z.2.D.J.G.k.C n f 4 q 0 q t X O ` HXJXCXQ @ # ` KXFX6 # 2 w e 0 2 2 O O g F s : -.x.~.S.A.j.A.N.D.2.4.T.9.",
"@X0.,.A.A.G.A.N.C.N.N.2.N.H.P.v.; ~ Z g - < e u $ u 2 X ^ HXKXJX' 6 6 FXoX. # y q 0 0 e u 2 % 1 S S = F x.~.S.A.j.C.C.J.D.6.T.9.",
"%X0.,.A.G.G.D.N.N.N.N.J.^.~.'.`.+ W W B 1 < u 0 e 0 q 2 X 7 CXKXKXPX6 1 X 6 y $ 0 q u e & t 6 * W ^ O ! m.x.G.N.N.G.J.K.F.F.E.9.",
" X6.4.G.G.A.;.N.D.N.N.K.}.}.oXMXU U I Y 6 6 q q t w 2 1 O 2   ` JXPXVXW O # < w q q q 0 i r r Q K K O ~ m.x.G.G.j.V.G.L.K.6.E.0.",
"#X6.4.G.G.G.A.K.2.N.K.~.}.].[.` pXeXU P r i i t # S 6 # i AX' # ' DXKXFX' 6 $ 2 < w u q i r r ] ) Q % ^ '.v.G.N.N.V.V.J.A.4.Y.9.",
"#X6.4.A.A.G.G.^./.D.;.H.}.].` ) <XeXpXU r r t 2 y #   Q GXKXAX%   ` GXKXHXMXy @ 2 y q & t r r Q L K % ~ '.x.G.C.V.V.z.G.N.>.Y.q.",
"#X0.4.l.j.G.D.L.^.N.;.H.m.! S K ) U U L 9 p t 2 @ % 7 DXKXDXQ # X # i NXJXJXNX2 1 2 t t t & t i 8 % + ~ m.z.A.J.V.G.z.G.A.4.T.0.",
"@Xq.S.A.j.A.N.J.A.j.V.I.-.M N `.{.T T W 8 % < # W DXKXFX` 6 X % S #   2 NXPXGXVXS % 2 S 2 # 7 S 7 > B h.m.z.j.G.V.G.z.G.D.4.E.0.",
"@XT.W.F.A.D.N.G.I.V.G.J.%.b C v.v.R R W >   7 / KXKXGXQ   $ t y y y 2 @ 2 ` DXKXGXQ X # , g F F m g h.m.P.A.;.A.G.G.j.G.A.4.E.9.",
"@XT.W.D.Z.C.N.V.z.V.I.U.J.%.b d b b M > o W VXKXGXQ % @ < u q 0 $ t u 2 X O ` DXKXAXQ 1 - h -.C f a v.P.G.D.N.D.^.K.l.A.2.4.T.9.",
"@X0.Y.D.3.B.N.V.V.I.V.:.2.L.D.%.d x ; o ^ IXKXJX7 O % 2 u q 0 u u 0 0 e q # , S VXKXKXoXg s C b d a P.l.N.J.A.S./.^.S.A.4.4.E.9.",
"@X7.,.D.N.N.C.C.N.V.C.J.:.J.l.P.m.; > BXLXIXBX; = - 1 w w q q q q t q q e 2 O - 7 oXPXKXAXN ; a A x.~.l.:.2.F.^.(.(.R.D.;.4.E.0.",
"|.0.4.S.N.N.G.V.C.C.3.D.;.H.k.m.g N VXLXIXN a h V g : , < q w w w y t q q , - - O 7 ` DXKXIX`.o h c.x.k.G.:.4./.(./.K.D.2.4.T.q.",
" X6.4.G.V.V.G.V.N.C.U./.I.~.b.].W DXLXDX~ = V G.k.Z m 3 2 2 2 < , < < < 2 3 g M m = . 7 BXJXJXBXm D '.P.k.J.2.L.(.W.A.D.A.4.T.9.",
" XF.l.G.j.V.G.N.j.C.U./.G.k.V ! IXLXFXW . > `.~ ! ~ W K 6 & 1 - - , & t Q ` ` MX` W 8 + + ' JXKXBXB n.}.k.^.;.A.^.F.;.A.A.4.T.9.",
" XY.l.A.j.V.J.j.N.C.A.G.l.b.f N PXBX^ ) ) K U U I P U U U ) ` `.`.` ) U U U P P P P <XU 9 L DXLXKXBXN c.~.P.:.F.F.A.;.N.A.4.T.9.",
" XY.l.A.N.J.K.N.G.N.j.G.~.v.; g n.! ^ aXUXeXtXyXyXtXyXyXsXaXoX'.].MXaXpXyXyXtXyXuXtXyXsXU L ` ` PXJXm M }.z.;.D.4.J.D.D.2.4.T.9.",
"@X0.>.A.A.K.L.2.C.D.N.j.P.x.; ; h '.oX` pXpXsXtXtXtXyXyXeXaX[.c.v.{.aXpXeXyXtXyXyXtXiXeXpXaX` W {.DX4 M m.z.H.2.4.^./.K.4.5.E.9.",
"@X0.5.A.D.^.^.D.;.G.N.:.l.~.h D ~.h.m.{.aXU <X<XU <X<XeXU ` `.~.x.'.` ) <X<X<X<X<XpXeXU ) ` }.c.! g o D v.P.J.A.A. X.X^.>.5.!.9.",
"#X0.>.S.A.J.K.N.J.V.C.G.j.z.v.v.~.(.~.m.~ > ! ! ~ R T W 8 ^ v.G.z.m.~ > ` ! ! ! ~ T W W o '.v.x.m.h.V Z z.G.G.j.A.K.K.K.S.5.T.9.",
"%X0.,.S.A.D.J.N.V.V.V.V.N.G.P.v.G.^.I.^.-.a k.V.%.[ b V : V l.A.H.x.D s k.:.=.=.%.b x M ; ~.z.l.v.v.b.x.P.G.J.J.N.G.A.S.4.5.E.q.",
"%X6.,.S.D.A.A.A.V.V.V.C.N.G.I.G.l.K.A.J.$.d %.&.*.X.[ x a Z H.J.P.x.C d { @.p.p.+.[ c x a P.z.l.A.J.z.I.I.V.V.G.A.G.j.S.>.5.T.9.",
"#X6.,.J.S.>.A.G.G.N.C.C.N.N.G.z.~.R.:.:.$.z &.#.+.| { c a C z.-.k.G.:.z #...y. ...X.[ l a A.G.G.2.N.l.A.G.A.N.N.D.G.l.A.4.5.T.9.",
"@X0.,.Y.Y.5.5.Y.F.4.A.D.4.2.l.l.x.n d b } { *.+...+.&.l a V m.h.; l $.} &.@.+.+.@.8.} l d 4.A.4.6.F.S.>.>.4.4.F.4.4.4.F.Y.0.T.1.",
"@Xw.0.Q.!.E.0.Q.E.0.0.Y.6.7.5.Y.OXC a $.:.=.&.8.*.&.} d f D M.V f $.l.;.8.&.O.&.{ %.z l l W.Y.7.E.!.(.9.,.6.6.!.7.6.7.E.Q.Q.!.1.",
"+X!.!.|.$X+Xe.XX+X!.!.|.!.e.!.!.(.n a h f d a d d d f v ~.OX(.D ; s f s a d k k x x d v <.%X!.XX!.+X$X!.r.!.Q.|.e.Q.Q.|.@X@XXXr.",
"$X+X+X$X*X*X+X+X&X+X+X*X*X+X$X&X=X).h.v.b.v.h.h.h.h.h.h.=X=X=X).h.m.n.h.h.z.l.:.x.h.-.).=X=XXX&X&X&X&XXX&X&X$X*X*X*X+X*X*X$X+Xr."
};
