/* XPM */
static char *b9d6df1714474eded487ad7d204f1a9ccqYC3gizMuvYY5fj[] = {
/* columns rows colors chars-per-pixel */
"64 64 256 2 ",
"   c #070800",
".  c #130F02",
"X  c #380804",
"o  c #271704",
"O  c #381804",
"+  c #311110",
"@  c #072903",
"#  c #162704",
"$  c #093702",
"%  c #1A3905",
"&  c #1C3819",
"*  c #282805",
"=  c #362606",
"-  c #273403",
";  c #292817",
":  c #363412",
">  c #35132C",
",  c #17362D",
"<  c #2E312B",
"1  c #430B00",
"2  c #4A0B01",
"3  c #490402",
"4  c #530A02",
"5  c #481504",
"6  c #561807",
"7  c #4B1514",
"8  c #4D2F0B",
"9  c #6B300A",
"0  c #473629",
"q  c #54151E",
"w  c #084902",
"e  c #174906",
"r  c #075801",
"t  c #165806",
"y  c #194717",
"u  c #1B5617",
"i  c #014015",
"p  c #255A19",
"a  c #2C4D07",
"s  c #086602",
"d  c #156607",
"f  c #097603",
"g  c #167906",
"h  c #1A6817",
"j  c #177814",
"k  c #267818",
"l  c #2B6C10",
"z  c #154C2A",
"x  c #275A26",
"c  c #345738",
"v  c #2E4D2A",
"b  c #357828",
"n  c #366838",
"m  c #2C6F2E",
"M  c #1C6321",
"N  c #4C4D07",
"B  c #705009",
"V  c #706809",
"C  c #4B4D2C",
"Z  c #4E7138",
"A  c #5C5A1B",
"S  c #2F074E",
"D  c #323050",
"F  c #3A2969",
"G  c #330962",
"H  c #49164F",
"J  c #472E55",
"K  c #511370",
"L  c #4F2E6D",
"P  c #662869",
"I  c #334F4C",
"U  c #376F4C",
"Y  c #3B4161",
"T  c #4C5056",
"R  c #50734D",
"E  c #676E52",
"W  c #504B69",
"Q  c #6F4E79",
"!  c #6C756A",
"~  c #57665D",
"^  c #8E6C14",
"/  c #885337",
"(  c #9F7030",
")  c #9B6A4B",
"_  c #82307A",
"`  c #0B8703",
"'  c #198707",
"]  c #179704",
"[  c #16920F",
"{  c #29871A",
"}  c #279717",
"|  c #2F9013",
" . c #17AA07",
".. c #19BA03",
"X. c #1DB512",
"o. c #10B007",
"O. c #25B909",
"+. c #28A918",
"@. c #28B816",
"#. c #33B518",
"$. c #2DA812",
"%. c #378829",
"&. c #289724",
"*. c #379526",
"=. c #388935",
"-. c #3B9834",
";. c #298D30",
":. c #2BA824",
">. c #35A625",
",. c #34B625",
"<. c #3BA837",
"1. c #30B42D",
"2. c #1E882B",
"3. c #4B9D3C",
"4. c #469939",
"5. c #539D39",
"6. c #489031",
"7. c #689E34",
"8. c #4CA33C",
"9. c #48A53B",
"0. c #54A33C",
"q. c #5BA33C",
"w. c #58A739",
"e. c #58A82D",
"r. c #63AB3C",
"t. c #68A638",
"y. c #72A736",
"u. c #74B73A",
"i. c #69AE36",
"p. c #18C301",
"a. c #0DC200",
"s. c #25C707",
"d. c #2CCD16",
"f. c #36CF23",
"g. c #31E417",
"h. c #47F02D",
"j. c #3A9145",
"k. c #478745",
"l. c #558A48",
"z. c #4C9E42",
"x. c #499948",
"c. c #539D4B",
"v. c #569B46",
"b. c #5A9956",
"n. c #548A55",
"m. c #668957",
"M. c #659959",
"N. c #6C9353",
"B. c #4CA344",
"V. c #4DAA44",
"C. c #4EA44A",
"Z. c #49A746",
"A. c #53A444",
"S. c #53AA43",
"D. c #5BAB44",
"F. c #53A44B",
"G. c #5BA54B",
"H. c #54AA4A",
"J. c #5BAB4C",
"K. c #5AA443",
"L. c #59B24A",
"P. c #59A654",
"I. c #5DB352",
"U. c #4FA450",
"Y. c #6CAD43",
"T. c #65AA47",
"R. c #73AD45",
"E. c #69B349",
"W. c #76B846",
"Q. c #65A856",
"!. c #67B555",
"~. c #75B754",
"^. c #74A956",
"/. c #688965",
"(. c #689766",
"). c #788879",
"_. c #73926E",
"`. c #74A96B",
"'. c #5A9863",
"]. c #7EC54B",
"[. c #78C356",
"{. c #73C362",
"}. c #AC8C14",
"|. c #B18C33",
" X c #92A021",
".X c #D0A52E",
"XX c #86C53D",
"oX c #8BBE4E",
"OX c #8AB26F",
"+X c #929069",
"@X c #DDA852",
"#X c #84C44C",
"$X c #8ACA48",
"%X c #91C94A",
"&X c #95D24C",
"*X c #87C856",
"=X c #93C856",
"-X c #8FD152",
";X c #90C866",
":X c #A4D06A",
">X c #F4CA51",
",X c #F9CA60",
"<X c #2A1B87",
"1X c #561890",
"2X c #572C8C",
"3X c #6D3292",
"4X c #7315B2",
"5X c #7736A7",
"6X c #712EAB",
"7X c #681F9B",
"8X c #57458C",
"9X c #724D90",
"0X c #796F8A",
"qX c #7645AF",
"wX c #5209D6",
"eX c #7013D0",
"rX c #742DCC",
"tX c #4E09E2",
"yX c #702CEE",
"uX c #6716E0",
"iX c #7C44D8",
"pX c #3F00D5",
"aX c #863096",
"sX c #8A18BA",
"dX c #892FB3",
"fX c #877690",
"gX c #8A51AE",
"hX c #8D6AB2",
"jX c #9C5EAA",
"kX c #8418C5",
"lX c #9114D2",
"zX c #9C3CD9",
"xX c #8D2ECE",
"cX c #A92BD1",
"vX c #8F38EE",
"bX c #9B21E3",
"nX c #924CD4",
"mX c #A44FD3",
"MX c #8F48F2",
"NX c #AB4EEF",
"BX c #A76CD9",
"VX c #C15FE3",
"CX c #788585",
"ZX c #8B8B91",
"AX c #97AF92",
"SX c #9B87AB",
"DX c #AAADA7",
"FX c #A987B9",
"GX c #B3E388",
"HX c #B2D4AE",
"JX c #A8D4A7",
"KX c #C9DBB6",
"LX c #ECA9FF",
"PX c #D89EF5",
"IX c #FFD4FF",
"UX c #E5E5E5",
/* pixels */
"GXGX=X#X&X$X$X$X&X$X$X-X$X-X-X$X$X$X$X%X=X:X:XoX*X;X;X;X;X;X;X*X-X#X$X=X=X=X=X=X%X%X=X=X=X=X-X-X$X$X$X$X$X%X-X&X&X&X$X$X*X*X:XKX",
"OX;X~.W.W.u.u.u.u.u.W.W.W.u.W.u.W.W.W.W.y.y.e.| r s d d r r r r s r g e.W.W.W.W.W.W.W.R.R.W.u.i.W.W.u.u.u.u.u.u.u.u.u.u.W.R.*XGX",
"T.^.q.q.w.e.e.q.q.5.K.D.0.0.K.v.b.G.q.| g g ' ] $.O.O.$.#.#.#.#.#.$.$.' s r g 9.6.0.K.A.q.w.e.e.q.v.q.0.w.w.0.0.w.0.5.q.q.5.Y.=X",
"T.T.5.5.D.0.0.A.A.v.F.B.z.B.F.c.b.x.-.| ] ]  .O.s.s...........O...O.@.+.+.+.} f g { 4.F.J.D.w.w.G.G.A.B.A.S.S.A.8.8.8.S.q.5.t.#X",
"T.E.q.D.!.I.J.F.F.F.F.B.B.F.H.F.P.=.j [ f.f.g.h.h.g.d.p.p.p.....s.......O.,.,.[ f j b x.Q.Q.T.D.w.8.8.B.B.F.z.z.B.S.L.I.H.3.r.*X",
"t.R.K.E.{.!.J.B.F.B.A.B.B.H.F.4.=.{ [  .f.h.h.h.h.f.d.p.p.a.p.......s.d.O. .+.+.} g h b k.P.G.3.4.9.F.P.(.(.b.b.v.H.I.I.H.3.r.*X",
"t.R.q.T.!.J.F.B.8.8.0.A.F.P.v.%.s $.f.g.h.h.h.h.d.d.p.p.p.p.p.p.d...o...O.O.d.@.#.} f s k 4.F.4.F.P.`.).CXCX)._.M.b.J.J.A.5.i.$X",
"y.R.5.5.A.8.B.H.8.8.D.T.M.(.n.m d $.@.p.g.h.h.s.s.p.....p.p.O.O.+.+.:.+.+.+.:.+.#.$.' r d k.P.b.(.CX0X0X9X8X8XQ )./.(.M.M.v.t.$X",
"t.R.q.z.A.B.C.Z.9.S.Q.`.ZXCXI c m -.1.@...s.p.a.p.a.a.a.s.X.#.<.m U n n x m m m -.*.k k x v R CX9XqXqX7X6XnXnXnX9X0XZXCX).N.^.oX",
"t.Y.A.B.B.Z.C.Z.Z.z.b._.ZXhXL L < U m j :.@...p.p.s...@.1.[ h U D D F L L F D I U U c c I D W 9X6XxXzXvXvXMXyXiXiXnXgXgX0X! N.=X",
"t.Y.A.z.B.B.C.C.P.b.(.CXhXBX5X5X3XL D , U ;.,.@.X.#.[ ;.U I D 8XqXnXmXxXmXnXqXqXF L L L K K 7X4X4XlXvXvXvXyXyXyXvXvXxXxX9XQ N.;X",
"t.Y.0.B.B.B.C.C.F.b._.0XqXnXxXNXzX6X3XL Y v j.;.<.=.m I D 9XqXnXmXmXNXxXzXvXvXvXnXiXrXrXrXkXlXlXlXlXlXeXwXwXwXuXvXNXNXnXgX0X^.~.",
"y.r.0.A.S.8.F.F.c.M.).0X5XNXvXNXzXNXNXgX2XD Y I I I 8X3X5XNXzXnXmX5XdXNXzXzXMXvXMXyXuXwXwXeXlXlXbXlXeXeXeXuXyXMXrXnXnXhXfX).^.].",
"t.r.0.H.D.8.B.F.F.`.).Q dXNXxXxXkXzXsXmXgX5X2X8X8XqXnXnXNXzXxX6X5XG K LXmXxXMXvXyXtXtXwXwXuXuXbXbXlXkXxXxXrXnXnXqX9X9X0X).m.t.$X",
"t.r.A.J.I.B.B.C.A.b./.0XgXxX4XmXG G S mXdXnXiXnXMXMXvXxXzX6XLXgXG S S IXmXdXMXMXyXtXtXtXwXtXwXeXbXcXsXcXzXxXdX9XSX).'.'.P.v.t.#X",
"t.Y.K.I.!.B.B.B.A.c._.SXhX5XdXIXS S K LX6XnXMXMXMXvXMXzXxX3XIXL S H S IXgX5XMXvXyXwXtXtXwXwXwXeXlXcXcXVXVXBXBXSX).M.B.9.Z.A.r.#X",
"t.R.K.z.F.F.H.4.S.F.m.+XFX3X7XIXG S K LX7X6XrXyXuXyXrXNX5XdXPX9XK G K LXVXrXMXMXyXwXeXeXeXeXwXeXlXcXmXmXBXSXZX! (.Q.-.V.Z.B.r.#X",
"7.t.5.z.G.c.P.J.9.z.b._.fX9X5XLXS S S gXS F F <X<X<X<XqX3XK 2X3X5XdX4XVXxXrXvXvXMXrX7X1X7X6XrXxXbXcXzXnXhXSXDXAXm.`.C.V.B.0.t.#X",
"y.i.q.T.b.l.M.`.F.P.P.n.~ L 3XmX2X8XW ~ z z z i z z z , Y F G 3X7XxX4XkX4XeX4X4X7X2XJ D D J F 1XxXbXvXnXqX3XJ > ; m.v.D.T.Y.y.oX",
"i.i.r.v.Z % v R b.Q.F.x v T J L D W ~ R -.} $.$.} :.<.2.U U , D 2X6X7X5X6X5X2X8XD I c x c c , S 1XeXvXMXNXnX5XK   E N.~.[.~.y.oX",
"t.Y.Q.l.v   . 0 Z N.l.t u n c z x m -.>.f.o.O...O.....f.1.&.2.;.U z I U U U n j.m =.' f k m z D 1XeXuXyXvXMXzX5XS fX(.G.D.E.r.*X",
"r.E.Q.b.c . . + : Z v $ u b M j &.&.,.@.s...s...s.s.o...s. .@.1.-.2.2.-.<.1.1.1.:.+.` f g h y , 2X4XeXuXyXvXvXxXK fX/.v.8.w.w.*X",
"t.r.z.c.R : + X X 7 o # e h ' :.:.#.$.] $.@.@.X.o.s.O.O.#.#.+.[ %.=.{ :.@.@.X.o.X.[ ` ` g h n ~ P 7X4X4XeXxXvXmX5XSX_.Q.H.w.w.[.",
"y.Y.3.H.Q.R C + 7 1 X o # w d &.:.+.f g *.9.&.<.:.} >.>.| *.*.h e p r g +. .X.@.` ` f j t p /.DXH K 3X5X6X7X4X6X9XSX/.b.8.8.w.*X",
"y.y.0.8.F.v.m.E = X X X o . $ h d d v.^.p e e w w w r w e e R KXHXAXAXc.s [ :.' h h w $ Z OX! ; 7 > > > J Q 9X9X0X0X(.c.A.8.r.#X",
"7.t.0.V.V.F.Q.m.Z 0 O X X o . # y u x m.AXHXHXJXHXHXHXHXHXJXHXUX).R n b k 4.%.r y @ # E +XE : o X X < ~ ).CX0XZX! _.b.A.A.8.r.#X",
"7.Y.K.B.B.B.H.z.Q.Z C O X X X o & y y x /.`._._._._._._._._.(.`.k.h k b %.b p $ # . < ! E o   + o v R (.`.(.(.(.b.P.F.B.V.8.w.].",
"T.Y.K.B.z.B.S.9.S.G.l.C O + X +   # y u p x x p p p x x u u p u b b Z b a % # # . ; 0 0 ;   . ; v l.Q.F.4.9.F.F.F.F.B.9.V.0.r.#X",
"t.Y.5.A.G.Q.!.D.9.H.Q.R C : .     # & u m =.=.%.-.*.-.6.=.=.6.6.a 0 8 = O o o * o ; < 0 0 ; o   (.M.c.B.S.9.8.S.B.B.9.B.H.A.T.*X",
"r.Y.0.A.G.Q.!.0.9.B.P.M._.E #   : C y $ p t w s r s r s s r w # O 5 X X O = - - ; : : 0 0 C < # l.v.c.z.J.L.0.4.B.B.B.B.G.v.r.*X",
"i.r.8.8.B.A.H.3.H.Z.F.b.M.Z e t t p % . o o # e { } } } { k a * O 2 X O - a a t e a : : : 0 T C x v.P.4.z.!.!.A.v.F.F.H.J.5.w.*X",
"t.r.0.V.B.C.J.A.C.H.P.x.b t s *.*.{ p : O 1 = - t { | { k p : O 2 2 O a l { >.&.k e - C 0 o + v M.!.J.z.J.Q.G.G.A.H.H.J.J.5.w.*X",
"t.Y.0.B.C.B.C.B.H.z.F.F.k s ' #.#.$.*.l = 1 6 O : N N N A : X 6 1 O * l | #.@.+.[ d e : C : o # Q.L.S.V.G.G.v.v.3.D.!.!.J.5.r.*X",
"t.Y.K.F.U.C.C.B.C.B.P.v.{ ' ] O. .] ' l = 5 2 2 5 A ( ^ N 5 2 4 1 8 - l '  .o.X.+.f $ % 0 0 8 * N.H.9.9.A.F.c.F.8.S.E.E.D.5.T.*X",
"t.Y.K.G.P.c.F.B.B.F.A.%.{ } +.@.] ' d a 8 5 X 1 1 8 ( / 6 2 2 X 5 8 - e s ` ] @.+.' r $ : 0 0 * N.T.A.9.B.F.F.F.8.S.D.D.H.5.T.*X",
"t.Y.K.F.F.C.F.B.3.H.4.j g } ,.@.` j d e N B 9 1 2 2 9 9 4 3 2 6 ( |.N a s f ` @.O.$.k e : 0 0 = E M.J.B.A.F.F.B.B.V.A.A.F.A.Y.*X",
"t.E.A.z.C.B.8.9.9.L.-.g ' +.d.X.' g t a B |.) 6 4 2 3 3 6 2 6 |.,X>XV a t g ` @.O.#.*.t - : 0 0 C m.Q.A.B.F.C.z.B.V.B.B.C.A.Y.*X",
"t.E.A.B.Z.9.8.8.H.!.c.b %.<.>.} { d e a ^ @X@X9 2 4 3 3 6 2 9 ,X>X.XV a e d j } <.<.b y & ; 0 0 : Z M.A.B.B.B.B.B.B.C.C.C.B.Y.*X",
"t.E.S.V.V.B.F.v.M._.! ~ ~ R U n x y % a ^ |.( 9 3 4 6 2 2 1 9 ( }.}.V N % y x n U ~ W D D > > 0 o Z M.G.B.B.B.Z.B.V.C.F.C.3.r.*X",
"7.E.D.L.L.F.M./.! 0X9X3X2XL J D < < ; 8 B 9 6 4 4 2 6 6 1 2 4 4 9 B B N * < D J F 2X3X6X2XK H J + E `.Q.B.V.V.V.B.C.F.U.C.3.r.$X",
"y.Y.D.D.J.M.! W 9X3X4XsX4XsXdX3X3XP > + 5 1 2 4 3 6 ) ) 6 3 4 4 2 5 5 + > P 3X3X6X4XeXlXsXsXaX_ + E OX!.A.8.B.B.8.4.C.F.F.0.t.$X",
"y.Y.q.D.P.M.! L 5XdXcXbXkXsXdXdXgXP H > 5 X X 2 1 X 9 9 X 2 6 4 2 1 + > > P 3XaXdX4XkXbXbXcXdXaX> E `.!.S.A.S.S.H.B.F.F.F.0.r.$X",
"t.Y.w.A.G.M.~ J L 3X5X7X1XK D D J H > + 5 1 6 / ) A / B 2 2 2 3 3 1 7 + > 0 J J D F L 2X3X3X7XP + Z ^.Q.A.A.H.J.I.H.F.F.A.0.i.*X",
"t.Y.0.V.F.b.R < > J L Y T U x x v < ; o O O 6 / ) ) ) B 6 3 1 2 2 1 O o * v v z n n U I J J H > ; Z v.A.3.8.H.J.I.A.F.z.B.0.i.#X",
"t.E.8.V.C.c.l.$ y n m ;.<.1.+.$.9.k e @ - = 5 9 9 9 8 6 6 6 6 9 6 5 = # e %.-.:.:.1.:.&.m x < & v Z v.8.3.3.A.J.H.8.A.A.A.D.r.#X",
"t.E.8.V.B.F.v.w r k :.+.X...p.O.#.' r w a N B |.@X|.B ^ @X@X@X.X^ B N e r } +.d.......+.} k u e l.b.H.B.B.z.F.H.S.8.H.A.J.E.i.#X",
"7.W.0.F.c.b.M.w r g +. .]  .@.,.g d d t l A V @X>X>X^ }.>X,X>X>X|.V A l s f f +.@. .] +.>.{ r w P.P.C.Z.F.F.F.F.B.8.S.A.H.E.i.#X",
"7.W.0.F.c.b.Q.e t ' >.[ f ` +.>.s r t r g l N  X}.|.V V }.}.}.}.V a l k s s s >.+.` f ' -.b t w U.C.9.9.F.G.F.F.B.B.A.8.A.T.r.].",
"t.R.A.B.F.G.~.~.k w 6.k w s [ <.d t t t { g l l a N N 8 N N N N - $ k | f w f <.} s w k b M b =.F.H.S.8.5.5.z.F.H.C.B.B.A.5.r.].",
"t.E.A.B.F.G.R.~.~.w w t w d j ;.r u M d } ] ' g d a : = - - = * % w | } ' s f { g d w u e $ R `.c.F.A.A.J.J.A.F.H.C.B.C.A.5.r.].",
"t.E.A.B.F.A.E.~.5.r w p $ $ e t k.b m h <.f.:.` f t % * - - 8 : $ w >.,.+.` f r w $ @ y v y R m.b.c.z.H.!.E.A.A.A.B.B.B.A.0.r.].",
"t.Y.A.A.F.z.D.E.A.F.b.n.& R AXOXM.n & & k.x.j.m n c < ; - - * o ; & k.k.x.k.U c I D D ! DXAX).v m.b.v.A.I.S.8.A.8.A.B.B.B.8.r.].",
"y.Y.0.A.A.5.A.A.S.U.b.'.& ! KXAX_.! Q K L L L L K K P Q ! ^.^.+XQ P 2XL 2XK K K K 1XK Q ZXKXKXZXR n.b.F.H.8.8.A.z.A.F.B.z.3.r.[.",
"t.R.q.5.G.K.D.8.V.x.b.`.@ & ! E E ZXjXdXdX4XsXsXlXcXdXjX).Q.G.m.jXdXsX4XeX4XkXkXkXcXaXaX~ ! DXUX& R b.P.C.B.8.A.A.G.F.C.z.3.T.[.",
"t.R.q.0.T.!.E.0.S.Z.x.'.@ @ R _.N.+XjXdXdXkXkXeXlXlXdXgX).P.V.M.jXdXxXkXxXeXeX4X4XdXaXSX/.Z /.ZX@ c b.F.B.Z.B.A.A.Q.P.F.B.0.Y.#X",
"t.W.q.0.E.{.[.S.8.C.x.b.p Z l.M.v.m.0X3X3X2X2X6X7X6X5X9X/.U.V.b.fX3X3X2X2X3X5X3X3X3XW ! `.M.R % @ n b.c.4.Z.S.A.F.!.I.H.B.0.Y.#X",
"t.Y.q.K.J.D.D.0.S.B.z.C.F.F.c.F.3.c./.< R n.U U I I < T M.F.F.b.! & R R n.n.U c c c & n.P.J.~.N.y n x.F.V.9.8.A.A.H.C.C.H.5.t.=X",
"r.Y.0.0.A.B.A.8.B.B.B.C.C.B.B.B.H.z.R w -.<.1.` j h i n c.B.P.P.m w 4.9.1.1.} f j h w x.H.H.~.T.k.b.P.C.V.B.B.B.B.H.V.Z.S.0.t.*X",
"t.Y.0.3.B.B.C.B.B.B.F.F.C.B.B.B.C.U.k.t } #.$.] ' g w b A.9.B.x.k.r } #.@.@.X.] g s w c.P.H.J.v.P.Q.F.z.B.B.B.C.B.H.V.Z.B.0.r.*X",
"t.Y.q.0.B.B.H.F.H.A.A.B.C.F.H.B.U.P.b d | $. .,.} d w b H.V.V.C.=.t ' $.] ]  .,.} s w x.P.C.z.z.c.c.z.3.H.H.A.F.F.B.B.C.A.5.t.*X",
"7.R.r.D.D.8.A.0.Q.A.5.5.A.Q.Q.A.B.x.w w | ' w r x.h e m z.V.V.H.w r { } r w f &.8.d w 5.G.A.8.I.z.A.0.S.D.D.A.K.T.0.0.L.T.5.t.*X",
"t.W.W.W.E.w.w.w.~.r.q.w.T.~.~.K.F.F.t b J.3.r M =.h p Z z.3.B.4.t =.B.4.t h =.4.%.t l Y.W.E.r.[.w.q.w.w.Y.Y.r.Y.W.r.r.~.W.t.i.*X",
"y.oX#X#X].W.W.W.#XW.W.W.W.*X[.T.v.l.e u t e @ y l l 6.^.^.T.b.l.w p t t $ e p t h k 5.=XoX%Xu.#Xu.u.i.u.].u.u.#XXXu.#X$X#Xu.u.$X",
"y.%X%X=X-X#X-X-X-X$X-X-X#X-X*XE.l.M.R (.l.M.n.m.6.5.OX:XOX^.M.n.n.M.k.(.m.m.m.l.6.G.;X:XXX&X$X&X&X$XXX$X&X&X$X%XXX%X&X&X$X$X$X$X"
};
