/* XPM */
static char *_9a294be757a4957ab08559810a529004mL5gUQSWrlJw6l2[] = {
/* columns rows colors chars-per-pixel */
"64 64 256 2 ",
"   c #070702",
".  c #170401",
"X  c #121701",
"o  c #2C0802",
"O  c #370804",
"+  c #271704",
"@  c #381704",
"#  c #351416",
"$  c #072803",
"%  c #172704",
"&  c #093602",
"*  c #183904",
"=  c #183919",
"-  c #282904",
";  c #352607",
":  c #283404",
">  c #282717",
",  c #353513",
"<  c #35132E",
"1  c #18352E",
"2  c #2E312D",
"3  c #1F0D23",
"4  c #440C00",
"5  c #4B0B01",
"6  c #480502",
"7  c #540902",
"8  c #471503",
"9  c #531708",
"0  c #4B1612",
"q  c #671A00",
"w  c #592501",
"e  c #48320F",
"r  c #692E0A",
"t  c #483629",
"y  c #43112A",
"u  c #084802",
"i  c #184906",
"p  c #085701",
"a  c #165807",
"s  c #184717",
"d  c #1A5615",
"f  c #245A19",
"g  c #2C4E07",
"h  c #076601",
"j  c #146606",
"k  c #087703",
"l  c #157906",
"z  c #1A6817",
"x  c #197615",
"c  c #277818",
"v  c #2C6B0F",
"b  c #154C2A",
"n  c #285926",
"m  c #355836",
"M  c #2D4D2C",
"N  c #297826",
"B  c #366837",
"V  c #30702F",
"C  c #1E6921",
"Z  c #494703",
"A  c #4D510D",
"S  c #715108",
"D  c #6E690C",
"F  c #4A4D2C",
"G  c #4C7237",
"H  c #605D1D",
"J  c #30084F",
"K  c #332F50",
"L  c #392D66",
"P  c #330A61",
"I  c #47154D",
"U  c #492F55",
"Y  c #511270",
"T  c #4E2C6D",
"R  c #6C2A77",
"E  c #61166D",
"W  c #344E4C",
"Q  c #376D4D",
"!  c #3B4761",
"~  c #4A5057",
"^  c #4E724C",
"/  c #666F52",
"(  c #524B6A",
")  c #6F4C78",
"_  c #6A7A68",
"`  c #6E736C",
"'  c #57665C",
"]  c #946629",
"[  c #986C52",
"{  c #0B8803",
"}  c #198707",
"|  c #189806",
" . c #16910E",
".. c #298719",
"X. c #279718",
"o. c #2F8E11",
"O. c #18A905",
"+. c #19BA04",
"@. c #18B40D",
"#. c #24B909",
"$. c #29A819",
"%. c #28B716",
"&. c #33B51A",
"*. c #2CA912",
"=. c #38892A",
"-. c #349625",
";. c #388935",
":. c #3B9834",
">. c #29922A",
",. c #2BA924",
"<. c #34A726",
"1. c #3CA838",
"2. c #32B52A",
"3. c #1E882B",
"4. c #4C9E3B",
"5. c #459938",
"6. c #549D39",
"7. c #4A8C35",
"8. c #689E34",
"9. c #4CA33D",
"0. c #48A63B",
"q. c #53A33C",
"w. c #5BA43C",
"e. c #58A738",
"r. c #57A82D",
"t. c #6BA434",
"y. c #63AB3C",
"u. c #68A639",
"i. c #6BB538",
"p. c #75B83B",
"a. c #72A735",
"s. c #18C402",
"d. c #0DC200",
"f. c #2ACB11",
"g. c #36D421",
"h. c #47F12C",
"j. c #75C13D",
"k. c #399647",
"l. c #468646",
"z. c #4D9E42",
"x. c #4A9948",
"c. c #539D43",
"v. c #549D4A",
"b. c #589848",
"n. c #5B9956",
"m. c #548A50",
"M. c #659958",
"N. c #688F53",
"B. c #4CA344",
"V. c #4DAA44",
"C. c #4DA44A",
"Z. c #4AA646",
"A. c #52A444",
"S. c #5AA443",
"D. c #53AA44",
"F. c #5AAB44",
"G. c #53A44B",
"H. c #5BA44B",
"J. c #54AA4B",
"K. c #5BAB4B",
"L. c #5AB249",
"P. c #5AA353",
"I. c #58A854",
"U. c #5CB453",
"Y. c #4DAC4B",
"T. c #6CAD43",
"R. c #65AA48",
"E. c #73AD47",
"W. c #68B248",
"Q. c #75B745",
"!. c #65A857",
"~. c #67B454",
"^. c #76B855",
"/. c #73A956",
"(. c #5B9663",
"). c #688C66",
"_. c #739468",
"`. c #778877",
"'. c #759574",
"]. c #699569",
"[. c #72A769",
"{. c #5FA161",
"}. c #79C455",
"|. c #7DC44D",
" X c #73C360",
".X c #B58F33",
"XX c #9E921A",
"oX c #D2A52E",
"OX c #87C93E",
"+X c #88BE4D",
"@X c #8E9D6B",
"#X c #DDA852",
"$X c #88C84A",
"%X c #93CA4B",
"&X c #88C756",
"*X c #93C857",
"=X c #90D14D",
"-X c #8DC562",
";X c #94C968",
":X c #A4D268",
">X c #F4CA51",
",X c #FAC962",
"<X c #2A1C87",
"1X c #561891",
"2X c #582D8D",
"3X c #6E3193",
"4X c #7214B1",
"5X c #732FAB",
"6X c #681E9C",
"7X c #564589",
"8X c #724E90",
"9X c #796E8B",
"0X c #7645B0",
"qX c #5A45A2",
"wX c #5209D7",
"eX c #7013D0",
"rX c #762DCC",
"tX c #4908E2",
"yX c #6E2BED",
"uX c #6D16E2",
"iX c #7D43E3",
"pX c #3C00D5",
"aX c #863198",
"sX c #8819B8",
"dX c #8A30B4",
"fX c #8B54AB",
"gX c #8D69B2",
"hX c #9564A2",
"jX c #8C17CB",
"kX c #9C3AD7",
"lX c #8D2ECD",
"zX c #AC2BD2",
"xX c #8B0FE3",
"cX c #973AE4",
"vX c #8C37F1",
"bX c #A539E9",
"nX c #A31BDD",
"mX c #8B45C7",
"MX c #934ED7",
"NX c #A652D2",
"BX c #8F46F3",
"VX c #AD4FEF",
"CX c #A86CD9",
"ZX c #C25EE3",
"AX c #7A8588",
"SX c #8C8A90",
"DX c #94AF8F",
"FX c #9C8AA9",
"GX c #A8A0AB",
"HX c #B2D4AE",
"JX c #B0DE93",
"KX c #C8DBB7",
"LX c #EDA9FF",
"PX c #D89EF3",
"IX c #FFD4FF",
"UX c #E4E6E4",
/* pixels */
"KXJX&X$X=X=X=X=X=X=X%X$X$X$X=X$X=X&X*X*X*X*X%X%X*X*X&X*X*X$X$X=X&X*X-X-X-X-X*X&X+X:X:X%X%X$XOX=X$X=X=X=X=X$X$X=X%X$X$X=X$X*XJXJX",
"JX-XQ.p.p.i.p.p.p.p.p.p.p.p.Q.Q.i.p.Q.E.E.Q.+XQ.Q.Q.Q.Q.r.v p h p p p p j j h p o.r.a.a.Q.$XQ.Q.T.Q.i.i.Q.Q.T.Q.p.i.i.j.p.Q.;X;X",
"*XT.6.w.e.r.e.e.r.q.e.e.e.q.b.6.r.r.e.w.c.S.q.5.0.l p h } *.*.&.&.&.&.&.%.%.*.*.| } l l =.S.!.n.c.q.q.e.e.S.6.S.q.e.r.e.e.w./.R.",
"+Xu.6.w.D.9.9.9.A.D.D.A.9.A.H.H.e.e.F.K.G.5...k k X.,.$.%.%.#.@.#.+.+.+.+.s.s.f.#.O.| } ..:.x.n.v.A.B.4.B.A.v.G.S.A.9.q.6.6.R.R.",
"&Xy.4.J.U.L.D.9.z.z.G.B.V.9.9.q.R.R.!.P.x.N x k  .2.2.#.+.+.+.s.+.+.s.s.s.f.g.h.h.g.g.g.| } ;.P.G.J.J.B.B.G.G.H.H.K.U.~.F.q.W.R.",
"&Xy.4.J.U.U.K.c.n.M.(.{.P.G.0.5.6.H.P.x.N x } X.$.*.O.#.f.s.+.+.s.s.d.d.s.f.g.h.h.h.h.g.O.| ..;.5.H.J.C.B.B.B.G.C.I.~. X~.w.T.u.",
"$Xu.6.A.K.K.b.N.'.`.AXAX'.[.P.G.z.H.z.x h k | &.%.%.#.#.+.O.+.f.s.s.s.s.s.s.f.f.h.h.h.h.g.g.| h =.b.P.H.q.q.9.9.A.G.R.~.R.w.T.t.",
"$Xu.b.M.M.M.).`.) 7X7X8X9X9XAX].n.!.l.j p } $.&.$.,.$.$.$.&.$.$.#.#.s.s.+.+.+.s.f.h.h.g.s.%.*.j V m.].!.K.D.0.0.D.A.4.S.6.6.E.u.",
"+X/._.`.AXSX9X8XMXMXMX5X6X0X0X8XAX^ n n c c =.:.N V V n Q B Q V 1.&.#.f.d.d.d.s.d.s.f.+.%.2.:.V m W AXAX[.!.D.0.B.J.B.A.c.w.T.t.",
"-XN.` 9XfXfXmXMXiXiXBXvXcXkXlX5X8X( K K m m Q Q W K L T T L L K Q z  .2.%.+.f.s.s.+.%.,.x V W 2 T T gXSX'.n.z.0.Z.Y.C.A.z.A.T.u.",
";XN.` 8XdXlXcXvXyXyXyXvXvXbXjX4X4X6XY Y T T T T 0X0XMXNXlXMXmX0X7XK W V >. .&.@.%.2.>.V 1 K T 3X5X5XCXgXAX).b.K.Z.C.B.B.z.c.T.u.",
"^._.9XfXMXVXVXvXuXwXwXwXeXxXxXxXxXlXjXrXrXrXiXMXcXcXcXcXlXVXMXNXmX0X8XK W V ;.1.>.l.M W T 3X5XkXVXlXMX0X9X`.n.G.C.C.B.A.C.c.T.u.",
"|./.`.hXfXmXmXlXBXyXwXeXeXeXxXnXxXuXuXwXeXuXyXBXvXBXcXkXZXdX5XNXMXcXVX5X3X7XK W ! ! L 2XmXVXVXbXbXcXVX5X9X`.M.c.G.G.9.D.A.6.u.t.",
"$Xu.N.`.9X8X8X0XMXMXrXrXlXeXnXnXxXuXuXwXtXtXtXyXvXBXlXNXLXY P 5X5XlXkXVXMXMX0XqXqX2X5XmXMXsXkXjXlXlXVXdX8X`.[.H.A.B.B.K.J.A.u.t.",
"$Xu.c.P.{.(.`.FX8XdXlXkXkXsXzXnXeXwXwXpXtXtXtXyXBXBXdXNXIXJ J P fXLX5XmXlXBXBXBXiXiXMXdXNXJ P P MX4XlXfX9X).M.A.C.B.B.U.K.S.u.t.",
"+Xu.q.Z.0.B.M.'.FXCXCXZXZXzXzXnXeXwXwXwXtXtXwXyXvXBXdXfXIXJ I J T IX3XlXcXBXvXBXBXBXMX5XLXY J J IXdX5XgXFX_.b.A.B.B.B.U.U.S.T.t.",
"$Xy.A.Z.Y.:.!.]._ hXFXCXNXNXzXnXeXeXeXeXuXeXwXyXBXBXrXZXLXY J Y 8XPXaX5XVXrXyXyXyXrXrX6XLXY J P IX6X3XFX@XN.H.D.5.G.H.G.B.A.W.u.",
"$Xu.q.B.Y.B.[.N.DXGXFXgXmXkXzXnXlXrX5X6X6X6XrXBXvXvXrXlXZX5XdXdX3X2XY 3XqX<X<X<X<X<XL J fXJ J J LX5X8XSX_.n.z.4.R.!.v.P.z.4.y.t.",
"+Xt.W.L.F.6.N.> 3 U 3X0XMXBXbXlX1XT U K K U 2X6X4X4XeX4XjX4XlX6X3XP L ! 1 b b b & b b b ' ( 8X2XNX2XT ' m.P.I.H.[.N.l.b.H.w.i.a.",
"+Xa.}.}.~.M./ . T 5XMXBXBXvXeX1XP 1 m m n m ~ K 7X2X0X5X5X6X5X2XK 1 Q Q 3.1.,.X.$.<.X.:.l.^ ~ K T U ~ M n n.!.b.^ M = G b.y.a.t.",
"&Xu.W.K.H._.[ J 5XcXBXvXuXeXeX1XK b N c k } ;.N l.B Q Q Q W b Q ;.3.>.2.g.+.+.#.+.s.O.2.<.:.N n b M B d a l.N.G t .   M m.!.E.t.",
"&Xw.q.9.b.).hXY lXcXvXyXuXeX4X2X1 s z l k { $.,.2.2.1.1.:.3.3.>.2.%.O.f.+.O.s.f.+.f.+.f.%.2.$.>.x C N f * M F , # . X m n.!.E.a.",
"&Xw.D.J.!.'.FX3XbXbXlXeX4X6X6XR ' B z l { { | @.@.@.%.%.,...=.=.} $.&.&.#.#.f.O.@.%.%.*.| *.&.,.,.} z g X + 0 o O @ M ^ b.c.u.8.",
"&Xe.9.z.n.).FXfX5X4X4X5X5X3XE I GX).f a x k { { %.@.@.$.} p f i j -.-.o.<.<.X.,.1.>.0.-.l k $.$.>.j u % + o O 0 @ F ^ !.J.4.T.a.",
"|.e.9.B.v.].9X9X8X8X2XU J < y y > _ @XG & u C z } ,. .h v.DXDXHXKX^ i d u p u u u i i n !.b.j j C & X + @ O o ; / N.b.G.0.9.T.t.",
"|.e.9.V.C.n.].` AX9XAX`.' 2 o o + , / @X/ % $ s p =.5.c V B ^ '.UXHXHXHXHXHXHXHXHXHXHXDXN.B d s % X o O o @ , G N.H.G.V.0.q.T.t.",
"|.e.9.V.Z.G.P.n.(.(.{.[.[./ M + # . + ' ` 2 X % & f N =.N c z l.[.].].'._.'._._.'.'.'.).n s s > + O O O + F G !.c.B.B.Z.B.A.W.6.",
"&Xy.A.Y.0.B.J.G.G.C.0.5.H.!.m.F > . . > t t >   % $ * g V G V V d f d d n n f n f n n f b s %   # O O # F m.H.D.0.V.B.C.z.A.W.y.",
"&Xu.c.H.B.9.A.A.A.9.9.D.A.b.M._.  + > t t , > + - + + @ ; e t g G 7.;.;.5.:.=.:.=.;.;.V d = X   . . , F ^ !.J.0.F.~.~.K.B.q.T.y.",
"&Xu.c.H.A.9.A.9.4.A.L.L.4.c.b.m.% 2 F t t , , : : : ; @ O O 8 @ % u p h h p p p h u d g & s F ,   % ^ _.M.G.B.9.D.~.!.K.B.q.T.u.",
"$Xe.6.I.J.A.A.c.S.~.~.q.5.H.c.n F ~ t , ; , g i a g g : @ 4 5 @ - g c ..X.X.X...i % + + X * v a a a G M.n.G.C.D.4.S.A.B.0.9.T.u.",
"$Xe.4.K.K.D.D.A.H.H.R.R.q.K.~.M.2 # + t F : i c -.<.o.v Z @ 4 8 @ , f c o.o...g : e 4 @ , v ..-.-.h a N x.I.H.A.H.K.G.C.B.q.T.8.",
"&Xy.6.K.~.~.F.9.G.v.H.H.B.D.L.!.% + , F , i j  .$.&.&.o.v - @ 4 9 o , A g A A e @ 9 4 ; v -.*.&.&.} h N v.G.z.J.C.A.B.B.B.q.T.t.",
"&XT.6.F.W.W.D.9.G.v.v.A.0.0.F.M.- e t , % & l $.@.O.O.} v : e 4 7 5 9 A ] ] S 9 5 5 8 ; v } | O.%.| l ..c.P.G.G.B.C.C.G.H.S.T.t.",
"&XT.6.F.F.F.D.9.C.G.A.B.0.q.R.N.; t t , & p } %.%.| { j i : e 8 6 5 4 9 ] ] w 4 4 O 8 , g j } | %.%.X...;.v.G.z.C.G.C.G.H.S.E.t.",
"&XT.q.A.D.D.9.9.C.C.G.A.9.K.M./ ; t t , i c *.#.%.{ k a g A .X] w 8 6 5 r r 5 5 6 w S Z i j l { %.2.$.l x 5.D.4.B.G.C.G.G.S.T.t.",
"&XT.9.B.B.B.V.B.B.C.G.A.A.R.N.F e t , : a -.&.#.%.{ l p g D >X,X.Xw 4 9 6 6 7 7 q [ .XS g a l } @.f.$.{ l 5.L.0.0.0.Z.Z.B.A.T.u.",
"&Xy.9.Z.C.B.B.B.B.B.B.9.A.H.G ; F t > > s V 1.<.X.l j u g D oX>X,Xr 4 9 6 6 7 7 r #X#X] g i j ..X.<.1.=.N v.~.D.9.9.0.Z.0.q.W.u.",
"$Xy.4.C.C.C.B.B.B.B.B.9.H.M.G + t 2 < K K ( ' ^ B n s * A D .X.X] w 6 8 8 9 7 7 q ] .X] g * i n V Q ^ ' ' _ '.M.b.G.Z.V.V.D.W.u.",
"$Xy.4.C.G.G.G.B.Y.V.9.9.!.[./ # U I Y 1X5X5X2XL U 2 > % A S S r 7 7 5 4 w 9 5 7 7 q S S e > 2 2 U U T 2X3X8X9X` ).M.H.L.D.F.T.8.",
"$Xu.A.G.G.C.5.B.B.B.9.A.~.@X/ # R aXsXjXjXjX4X5X3X8XU < # @ 8 8 7 7 6 9 [ [ 9 6 7 5 4 8 # < T 3X3XdXsX4XsX4X3X8X( _ M.K.K.F.T.a.",
"&Xu.A.G.G.G.C.J.J.D.D.D.~.[./ # aXdXzXnXnXjX4XaXaX8XT y # # 4 6 7 0 5 O r r o 6 4 O O 0 # I R fXdXdXsXjXnXzXdXaXT ` M.P.F.w.T.a.",
"&Xu.q.G.G.H.J.U.K.J.D.D.~./.G # E 3X3X3X2XT U K U U 2 < # # 6 6 6 5 5 8 S ] H [ ] 9 4 8 # < I U K K T 1X6X5X3XT U ' n.G.A.q.T.u.",
"$Xu.q.C.z.G.G.U.U.J.C.z.A.b.G > < I U ! W Q B B n M M % + @ 4 5 8 6 6 9 S [ [ [ ] 9 O @ + > 2 M n n Q ~ ! T U < 2 ^ n.C.B.9.T.u.",
"$Xy.F.A.C.G.B.J.K.G.z.4.z.c.G M = 1 n N >.,.2.,.<.:.=.i % ; 8 w w w q q w w r w r @ ; : % i c 0.*.%.2.1.;.V B s & m.v.Z.V.9.W.u.",
"$Xi.W.K.A.J.B.A.I.G.z.B.B.J.n.l.s d c X.@.+.s.s.f.$...a i A S ] oX#X#X#X] S .X#X.XS A g u p } &.#.s.+.@.$.-.c p u b.G.Z.Y.q.E.u.",
"$Xi.W.K.A.A.9.B.G.G.G.G.Z.Y.I.P.u p ..<.$.O.O.%.$.k h h v A H XX>X>X,X,XXX] >X>X#XD H v a j j l &.%.O.| O.$.l p u M.P.C.G.q.Q.t.",
"|.y.R.A.9.A.B.B.G.G.H.G.0.0.C.C.u a N :.} k { $.<.h h h c v g D XXXXXX.XS D .XXXXXA v v p a p h $.$.{ k | $.} a i !.P.v.G.q.Q.8.",
"|.u.6.A.B.B.Z.J.G.z.c.4.9.V.J.G.;.V C V c u h X.1.k p k o.c * : Z Z Z Z e Z Z g v v } ..a d a j 1. .h u c 5.u c ^.^.P.G.B.A.Q.t.",
"|.y.6.A.C.B.C.G.G.A.K.K.A.A.G.v.[.^ & i d p j k 3.k h } X.X.u * - ; : : ; : g j l } | X.a V f p >.x j u a u u ^.^./.H.G.Z.A.T.u.",
"|.y.q.A.B.C.B.A.A.A.W.~.F.c.v.n.N.^ = M s $ & p p k { $.2.<.p & , e : : - * a k { ,.2.1.z V G 7.a u & & f u p 6.^.W.S.G.B.A.T.t.",
"}.y.9.B.C.C.A.B.A.9.D.U.S.b.n.M.M `.DXGX` K K W m ^ l.x.x.l.= > X - : : > 2 m B V k.x.l.= = G M.DXDX^ = m.n.C.A.W.R.c.G.B.A.T.u.",
"}.R.4.z.C.G.A.z.A.9.9.D.H.n.m.^ SXKXKXSX) E 6XE Y T T T T 2XR ) @X/./._ ) R E E T T T T T ) ` _.DXKX_ = (.n.Y.V.S.S.6.S.A.q.E.u.",
"}.R.4.z.C.H.H.q.A.9.9.V.P.n.^ = UXHX/ ' 8XaXlXjXsXsX4XrX4XdXdXhX).H.!.`.hXdXsXjXsXsX4XdXdXgXSX/ / _ 2 % [.v.z.V.q.F.S.S.6.q.E.t.",
"&XT.q.B.G.K.R.A.A.9.9.B.P.n.m $ SX).G ).hXaXaX4X4XjXjXjXjXlXdXhXM.Z.I.`.fXdXjXjXeXjXsXlXdXhX@XN._.^ $ $ {.x.B.V.q.W.~.R.q.w.E.t.",
"&XT.q.B.J.U.~.A.A.V.0.5.z.n.B $ * G M.[.` ( 3X3X3X5X3X2X2X3X3XhX(.Y.G.).9X5X5X6X5X2X2X3X3X9XN.R.M.m.^ f P.z.V.0.w.^.^.~.q.w.Q.t.",
"&Xt.6.D.B.B.J.B.A.9.0.V.G.x.B s N.^.K.P.m.= M m m Q (.m.^ ^ 1 _ n.P.G.M.~ 2 W m Q Q m.^ 2 _ n.4.G.v.P.P.C.B.B.D.A.F.K.K.A.e.i.t.",
"&Xu.q.D.Z.Y.J.B.A.B.0.B.G.I.n.7.H.^.J.J.x.u z x k X.2.,.1.:.u B {.P.C.v.B * z x  .,.1.:.u ^ x.J.B.B.C.G.C.Z.Z.B.B.G.A.A.q.q.T.u.",
"&Xu.q.B.Z.Z.J.C.G.C.Z.B.z.G.!.P.c.K.I.I.v.u h { | @.%.%.&.X.p l.x.z.9.G.V u l } | #.&.X.a l.x.Z.B.B.z.C.J.Y.Z.B.C.G.z.C.4.q.T.u.",
"&Xu.6.A.J.B.A.A.G.A.G.A.9.B.G.v.z.z.C.I.b.u h X.2.O.| | *.} a 7.C.J.D.J.V u j X.&.| *.X.j V I.C.Z.D.G.A.C.C.C.J.G.G.B.B.9.e.T.t.",
"&Xu.6.R.W.q.q.R.S.S.S.F.D.q.A.z.~.9.A.H.6.u j 0.-.k p p X...p u G.J.B.z.V u z B.p u } ..p u 5.B.A.W.R.A.c.4.A.K.A.A.q.F.F.y.E.8.",
"&Xu.u.^.^.y.y.Q.W.R.y.T.y.w.w.e.}.y.Q.Q.T.v a =.5.=.z p 5.9.;.a z.z.z.c.G f z ;.C a z.K.N a G.G.A.^.^.R.q.q.w.^.e.w.e.W.Q.Q.Q.t.",
"$Xp.p.$X$X$Xp.$X$XQ.Q.Q.p.i.p.p.$Xp.%X$X*X6.v z i f i & a i f u m.n.!././.7.v v s $ i a d u m.b.R.&X&XQ.Q.Q.Q.$Xp.p.p.$X&X$X+Xa.",
"$X$X$X%X=X=X%XOX=X$X=X=X$X$X=X=X=X$X=XOX:X;XH.7.m.N.N.N.M.l.n.m.m.M./.-X:X*X6.7.N.m.M.m.[.^ M.b.E.*X*X&X=X$X$X=X=X=X$X=X*X&X%Xa."
};
